<svg xmlns="http://www.w3.org/2000/svg" xmlns:xlink="http://www.w3.org/1999/xlink" width="32" zoomAndPan="magnify" viewBox="0 0 375 374.999991" height="32" preserveAspectRatio="xMidYMid meet" version="1.0"><path fill="#327325" d="M 161.722656 210.757812 C 159.414062 210.757812 157.15625 210.074219 155.234375 208.789062 C 153.316406 207.507812 151.820312 205.683594 150.9375 203.550781 C 150.050781 201.417969 149.820312 199.070312 150.273438 196.804688 C 150.722656 194.539062 151.835938 192.460938 153.46875 190.828125 C 155.101562 189.195312 157.179688 188.082031 159.445312 187.632812 C 161.710938 187.179688 164.058594 187.410156 166.191406 188.296875 C 168.324219 189.179688 170.148438 190.675781 171.429688 192.59375 C 172.714844 194.515625 173.398438 196.773438 173.398438 199.082031 C 173.398438 200.617188 173.09375 202.132812 172.507812 203.550781 C 171.921875 204.964844 171.0625 206.253906 169.976562 207.339844 C 168.894531 208.421875 167.605469 209.28125 166.191406 209.867188 C 164.773438 210.457031 163.257812 210.757812 161.722656 210.757812 Z M 304.15625 187.40625 C 304.15625 210.5 297.308594 233.070312 284.480469 252.269531 C 271.652344 271.46875 253.417969 286.433594 232.085938 295.269531 C 210.753906 304.105469 187.277344 306.417969 164.632812 301.914062 C 141.984375 297.410156 121.179688 286.289062 104.851562 269.960938 C 88.523438 253.632812 77.40625 232.832031 72.902344 210.183594 C 68.394531 187.539062 70.707031 164.0625 79.542969 142.730469 C 88.382812 121.394531 103.34375 103.160156 122.542969 90.332031 C 141.742188 77.503906 164.316406 70.65625 187.40625 70.65625 C 218.371094 70.65625 248.066406 82.957031 269.960938 104.851562 C 291.855469 126.746094 304.15625 156.445312 304.15625 187.40625 Z M 241.84375 167.996094 C 237.820312 168.234375 234.023438 169.949219 231.1875 172.8125 C 219.183594 164.878906 205.152344 160.574219 190.765625 160.410156 L 198.9375 123.488281 L 225.058594 129.324219 C 225.039062 130.851562 225.324219 132.367188 225.894531 133.78125 C 226.464844 135.195312 227.3125 136.484375 228.382812 137.570312 C 229.457031 138.65625 230.734375 139.519531 232.144531 140.109375 C 233.550781 140.695312 235.0625 141 236.589844 141 C 239.699219 140.960938 242.667969 139.699219 244.851562 137.484375 C 247.039062 135.273438 248.261719 132.289062 248.261719 129.179688 C 248.351562 126.511719 247.507812 123.894531 245.882812 121.777344 C 244.257812 119.660156 241.945312 118.171875 239.34375 117.570312 C 236.742188 116.96875 234.015625 117.285156 231.621094 118.472656 C 229.230469 119.65625 227.324219 121.636719 226.226562 124.070312 L 197.039062 117.648438 C 196.34375 117.515625 195.625 117.652344 195.027344 118.03125 C 194.429688 118.414062 194.003906 119.007812 193.828125 119.691406 L 184.78125 160.410156 C 170.398438 160.613281 156.375 164.917969 144.355469 172.8125 C 142.777344 171.183594 140.859375 169.914062 138.738281 169.101562 C 136.621094 168.285156 134.347656 167.945312 132.082031 168.097656 C 129.816406 168.25 127.613281 168.898438 125.621094 169.988281 C 123.632812 171.082031 121.902344 172.597656 120.558594 174.425781 C 119.214844 176.257812 118.285156 178.359375 117.832031 180.582031 C 117.382812 182.808594 117.425781 185.105469 117.953125 187.3125 C 118.480469 189.523438 119.484375 191.589844 120.894531 193.367188 C 122.304688 195.148438 124.085938 196.601562 126.113281 197.621094 C 125.890625 200.050781 125.890625 202.492188 126.113281 204.917969 C 126.113281 229.582031 153.988281 249.722656 188.28125 249.722656 C 222.578125 249.722656 250.453125 229.582031 250.453125 204.917969 C 250.457031 202.414062 250.164062 199.914062 249.578125 197.476562 C 252.527344 195.804688 254.851562 193.222656 256.203125 190.113281 C 257.554688 187.003906 257.855469 183.542969 257.066406 180.246094 C 256.273438 176.949219 254.433594 174 251.820312 171.84375 C 249.203125 169.6875 245.957031 168.441406 242.570312 168.289062 Z M 209.445312 222.722656 C 202.886719 226.84375 195.296875 229.027344 187.554688 229.027344 C 179.808594 229.027344 172.222656 226.84375 165.664062 222.722656 C 165.125 222.234375 164.421875 221.960938 163.691406 221.960938 C 162.960938 221.960938 162.261719 222.234375 161.722656 222.722656 C 161.4375 222.984375 161.214844 223.300781 161.058594 223.652344 C 160.902344 224.003906 160.824219 224.382812 160.824219 224.765625 C 160.824219 225.152344 160.902344 225.53125 161.058594 225.882812 C 161.214844 226.234375 161.4375 226.550781 161.722656 226.808594 C 169.386719 232.011719 178.4375 234.792969 187.699219 234.792969 C 196.960938 234.792969 206.011719 232.011719 213.675781 226.808594 C 213.960938 226.550781 214.183594 226.234375 214.339844 225.882812 C 214.496094 225.53125 214.574219 225.152344 214.574219 224.765625 C 214.574219 224.382812 214.496094 224.003906 214.339844 223.652344 C 214.183594 223.300781 213.960938 222.984375 213.675781 222.722656 C 213.402344 222.4375 213.074219 222.210938 212.710938 222.054688 C 212.347656 221.898438 211.957031 221.816406 211.558594 221.816406 C 211.164062 221.816406 210.773438 221.898438 210.410156 222.054688 C 210.046875 222.210938 209.71875 222.4375 209.445312 222.722656 Z M 213.09375 187.40625 C 210.785156 187.40625 208.527344 188.09375 206.605469 189.375 C 204.6875 190.65625 203.1875 192.480469 202.304688 194.617188 C 201.421875 196.746094 201.191406 199.09375 201.640625 201.359375 C 202.089844 203.625 203.203125 205.703125 204.835938 207.339844 C 206.46875 208.972656 208.550781 210.082031 210.8125 210.53125 C 213.078125 210.984375 215.425781 210.753906 217.5625 209.867188 C 219.691406 208.984375 221.515625 207.488281 222.800781 205.570312 C 224.082031 203.648438 224.765625 201.390625 224.765625 199.082031 C 224.765625 195.984375 223.539062 193.015625 221.347656 190.828125 C 219.160156 188.636719 216.1875 187.40625 213.09375 187.40625 Z M 213.09375 187.40625 " fill-opacity="1" fill-rule="nonzero"/></svg>