<svg xmlns="http://www.w3.org/2000/svg" xmlns:xlink="http://www.w3.org/1999/xlink" width="500" zoomAndPan="magnify" viewBox="0 0 375 374.999991" height="500" preserveAspectRatio="xMidYMid meet" version="1.0"><defs><g/></defs><path fill="#327325" d="M 36.15625 196.769531 C 35.25 196.769531 34.367188 196.5 33.613281 196 C 32.863281 195.496094 32.273438 194.78125 31.929688 193.945312 C 31.582031 193.109375 31.492188 192.1875 31.667969 191.300781 C 31.84375 190.414062 32.28125 189.597656 32.921875 188.957031 C 33.5625 188.320312 34.375 187.882812 35.261719 187.707031 C 36.152344 187.53125 37.070312 187.621094 37.90625 187.96875 C 38.742188 188.3125 39.457031 188.898438 39.960938 189.652344 C 40.460938 190.40625 40.730469 191.289062 40.730469 192.195312 C 40.730469 192.796875 40.613281 193.390625 40.382812 193.945312 C 40.152344 194.5 39.816406 195.003906 39.390625 195.429688 C 38.964844 195.855469 38.460938 196.191406 37.90625 196.421875 C 37.351562 196.652344 36.757812 196.769531 36.15625 196.769531 Z M 91.972656 187.617188 C 91.972656 196.667969 89.289062 205.511719 84.261719 213.035156 C 79.234375 220.558594 72.089844 226.421875 63.730469 229.886719 C 55.367188 233.347656 46.167969 234.253906 37.296875 232.488281 C 28.421875 230.726562 20.269531 226.367188 13.871094 219.96875 C 7.472656 213.570312 3.113281 205.417969 1.351562 196.542969 C -0.414062 187.667969 0.492188 178.472656 3.953125 170.109375 C 7.417969 161.75 13.28125 154.605469 20.804688 149.578125 C 28.328125 144.550781 37.171875 141.867188 46.222656 141.867188 C 58.355469 141.867188 69.992188 146.6875 78.570312 155.269531 C 87.152344 163.847656 91.972656 175.484375 91.972656 187.617188 Z M 67.550781 180.011719 C 65.976562 180.105469 64.488281 180.777344 63.378906 181.898438 C 58.671875 178.792969 53.171875 177.105469 47.535156 177.039062 L 50.738281 162.570312 L 60.976562 164.859375 C 60.96875 165.457031 61.078125 166.050781 61.300781 166.605469 C 61.527344 167.160156 61.859375 167.664062 62.277344 168.089844 C 62.699219 168.515625 63.199219 168.855469 63.75 169.085938 C 64.304688 169.316406 64.894531 169.433594 65.492188 169.433594 C 66.710938 169.417969 67.875 168.921875 68.730469 168.054688 C 69.589844 167.191406 70.066406 166.019531 70.066406 164.800781 C 70.101562 163.753906 69.773438 162.730469 69.136719 161.902344 C 68.496094 161.070312 67.589844 160.488281 66.574219 160.253906 C 65.554688 160.015625 64.484375 160.140625 63.546875 160.605469 C 62.609375 161.070312 61.863281 161.84375 61.433594 162.800781 L 49.996094 160.285156 C 49.722656 160.230469 49.441406 160.285156 49.207031 160.433594 C 48.972656 160.582031 48.804688 160.816406 48.738281 161.085938 L 45.191406 177.039062 C 39.554688 177.121094 34.0625 178.804688 29.351562 181.898438 C 28.730469 181.261719 27.980469 180.765625 27.148438 180.445312 C 26.320312 180.125 25.429688 179.992188 24.542969 180.050781 C 23.652344 180.113281 22.789062 180.367188 22.007812 180.792969 C 21.230469 181.222656 20.550781 181.816406 20.023438 182.53125 C 19.5 183.25 19.132812 184.074219 18.957031 184.945312 C 18.78125 185.816406 18.796875 186.71875 19.003906 187.582031 C 19.210938 188.449219 19.605469 189.257812 20.15625 189.957031 C 20.710938 190.652344 21.40625 191.222656 22.203125 191.621094 C 22.113281 192.574219 22.113281 193.53125 22.203125 194.480469 C 22.203125 204.144531 33.125 212.039062 46.5625 212.039062 C 60.003906 212.039062 70.925781 204.144531 70.925781 194.480469 C 70.929688 193.5 70.8125 192.519531 70.582031 191.566406 C 71.738281 190.910156 72.648438 189.898438 73.179688 188.679688 C 73.707031 187.460938 73.828125 186.105469 73.515625 184.8125 C 73.207031 183.519531 72.484375 182.363281 71.460938 181.519531 C 70.4375 180.675781 69.164062 180.1875 67.835938 180.128906 Z M 54.855469 201.457031 C 52.285156 203.074219 49.3125 203.929688 46.277344 203.929688 C 43.242188 203.929688 40.269531 203.074219 37.699219 201.457031 C 37.488281 201.265625 37.214844 201.160156 36.929688 201.160156 C 36.640625 201.160156 36.367188 201.265625 36.15625 201.457031 C 36.042969 201.558594 35.957031 201.683594 35.894531 201.820312 C 35.835938 201.960938 35.804688 202.109375 35.804688 202.257812 C 35.804688 202.410156 35.835938 202.558594 35.894531 202.695312 C 35.957031 202.835938 36.042969 202.957031 36.15625 203.058594 C 39.160156 205.097656 42.707031 206.1875 46.335938 206.1875 C 49.964844 206.1875 53.511719 205.097656 56.515625 203.058594 C 56.625 202.957031 56.714844 202.835938 56.773438 202.695312 C 56.835938 202.558594 56.867188 202.410156 56.867188 202.257812 C 56.867188 202.109375 56.835938 201.960938 56.773438 201.820312 C 56.714844 201.683594 56.625 201.558594 56.515625 201.457031 C 56.40625 201.347656 56.277344 201.257812 56.136719 201.195312 C 55.996094 201.132812 55.839844 201.101562 55.683594 201.101562 C 55.53125 201.101562 55.375 201.132812 55.234375 201.195312 C 55.089844 201.257812 54.964844 201.347656 54.855469 201.457031 Z M 56.285156 187.617188 C 55.382812 187.617188 54.496094 187.886719 53.742188 188.390625 C 52.992188 188.894531 52.40625 189.609375 52.058594 190.445312 C 51.714844 191.277344 51.621094 192.199219 51.800781 193.085938 C 51.976562 193.972656 52.410156 194.789062 53.050781 195.429688 C 53.691406 196.070312 54.503906 196.503906 55.394531 196.679688 C 56.28125 196.859375 57.199219 196.765625 58.035156 196.421875 C 58.871094 196.074219 59.585938 195.488281 60.089844 194.734375 C 60.59375 193.984375 60.859375 193.097656 60.859375 192.195312 C 60.859375 190.980469 60.378906 189.816406 59.519531 188.957031 C 58.664062 188.101562 57.5 187.617188 56.285156 187.617188 Z M 56.285156 187.617188 " fill-opacity="1" fill-rule="nonzero"/><g fill="#327325" fill-opacity="1"><g transform="translate(91.337504, 207.749986)"><g><path d="M 12.78125 -21.046875 L 15.375 -21.046875 C 17.90625 -21.046875 19.773438 -21.46875 20.984375 -22.3125 C 22.191406 -23.15625 22.796875 -24.484375 22.796875 -26.296875 C 22.796875 -28.085938 22.175781 -29.363281 20.9375 -30.125 C 19.707031 -30.882812 17.800781 -31.265625 15.21875 -31.265625 L 12.78125 -31.265625 Z M 12.78125 -14.515625 L 12.78125 0 L 4.765625 0 L 4.765625 -37.828125 L 15.78125 -37.828125 C 20.925781 -37.828125 24.734375 -36.890625 27.203125 -35.015625 C 29.671875 -33.148438 30.90625 -30.3125 30.90625 -26.5 C 30.90625 -24.269531 30.289062 -22.285156 29.0625 -20.546875 C 27.832031 -18.816406 26.097656 -17.460938 23.859375 -16.484375 C 29.554688 -7.984375 33.265625 -2.488281 34.984375 0 L 26.09375 0 L 17.046875 -14.515625 Z M 12.78125 -14.515625 "/></g></g></g><g fill="#327325" fill-opacity="1"><g transform="translate(126.320625, 207.749986)"><g><path d="M 16.125 -23.859375 C 14.445312 -23.859375 13.132812 -23.328125 12.1875 -22.265625 C 11.238281 -21.203125 10.695312 -19.695312 10.5625 -17.75 L 21.640625 -17.75 C 21.597656 -19.695312 21.085938 -21.203125 20.109375 -22.265625 C 19.128906 -23.328125 17.800781 -23.859375 16.125 -23.859375 Z M 17.234375 0.515625 C 12.578125 0.515625 8.9375 -0.765625 6.3125 -3.328125 C 3.6875 -5.898438 2.375 -9.546875 2.375 -14.265625 C 2.375 -19.109375 3.585938 -22.851562 6.015625 -25.5 C 8.441406 -28.144531 11.796875 -29.46875 16.078125 -29.46875 C 20.160156 -29.46875 23.335938 -28.300781 25.609375 -25.96875 C 27.890625 -23.644531 29.03125 -20.429688 29.03125 -16.328125 L 29.03125 -12.5 L 10.375 -12.5 C 10.457031 -10.257812 11.117188 -8.507812 12.359375 -7.25 C 13.609375 -5.988281 15.351562 -5.359375 17.59375 -5.359375 C 19.34375 -5.359375 20.992188 -5.535156 22.546875 -5.890625 C 24.097656 -6.253906 25.71875 -6.835938 27.40625 -7.640625 L 27.40625 -1.53125 C 26.019531 -0.832031 24.539062 -0.316406 22.96875 0.015625 C 21.40625 0.347656 19.492188 0.515625 17.234375 0.515625 Z M 17.234375 0.515625 "/></g></g></g><g fill="#327325" fill-opacity="1"><g transform="translate(157.629484, 207.749986)"><g><path d="M 13.296875 0.515625 C 9.898438 0.515625 7.226562 -0.800781 5.28125 -3.4375 C 3.34375 -6.082031 2.375 -9.742188 2.375 -14.421875 C 2.375 -19.160156 3.363281 -22.851562 5.34375 -25.5 C 7.320312 -28.144531 10.046875 -29.46875 13.515625 -29.46875 C 17.148438 -29.46875 19.925781 -28.054688 21.84375 -25.234375 L 22.09375 -25.234375 C 21.695312 -27.390625 21.5 -29.3125 21.5 -31 L 21.5 -40.265625 L 29.421875 -40.265625 L 29.421875 0 L 23.375 0 L 21.84375 -3.75 L 21.5 -3.75 C 19.707031 -0.90625 16.972656 0.515625 13.296875 0.515625 Z M 16.078125 -5.765625 C 18.085938 -5.765625 19.5625 -6.351562 20.5 -7.53125 C 21.445312 -8.707031 21.960938 -10.703125 22.046875 -13.515625 L 22.046875 -14.359375 C 22.046875 -17.460938 21.566406 -19.6875 20.609375 -21.03125 C 19.648438 -22.382812 18.09375 -23.0625 15.9375 -23.0625 C 14.175781 -23.0625 12.804688 -22.3125 11.828125 -20.8125 C 10.859375 -19.320312 10.375 -17.15625 10.375 -14.3125 C 10.375 -11.46875 10.863281 -9.332031 11.84375 -7.90625 C 12.832031 -6.476562 14.242188 -5.765625 16.078125 -5.765625 Z M 16.078125 -5.765625 "/></g></g></g><g fill="#327325" fill-opacity="1"><g transform="translate(191.1636, 207.749986)"><g><path d="M 13.296875 0.515625 C 9.898438 0.515625 7.226562 -0.800781 5.28125 -3.4375 C 3.34375 -6.082031 2.375 -9.742188 2.375 -14.421875 C 2.375 -19.160156 3.363281 -22.851562 5.34375 -25.5 C 7.320312 -28.144531 10.046875 -29.46875 13.515625 -29.46875 C 17.148438 -29.46875 19.925781 -28.054688 21.84375 -25.234375 L 22.09375 -25.234375 C 21.695312 -27.390625 21.5 -29.3125 21.5 -31 L 21.5 -40.265625 L 29.421875 -40.265625 L 29.421875 0 L 23.375 0 L 21.84375 -3.75 L 21.5 -3.75 C 19.707031 -0.90625 16.972656 0.515625 13.296875 0.515625 Z M 16.078125 -5.765625 C 18.085938 -5.765625 19.5625 -6.351562 20.5 -7.53125 C 21.445312 -8.707031 21.960938 -10.703125 22.046875 -13.515625 L 22.046875 -14.359375 C 22.046875 -17.460938 21.566406 -19.6875 20.609375 -21.03125 C 19.648438 -22.382812 18.09375 -23.0625 15.9375 -23.0625 C 14.175781 -23.0625 12.804688 -22.3125 11.828125 -20.8125 C 10.859375 -19.320312 10.375 -17.15625 10.375 -14.3125 C 10.375 -11.46875 10.863281 -9.332031 11.84375 -7.90625 C 12.832031 -6.476562 14.242188 -5.765625 16.078125 -5.765625 Z M 16.078125 -5.765625 "/></g></g></g><g fill="#327325" fill-opacity="1"><g transform="translate(224.697717, 207.749986)"><g><path d="M 3.796875 -36.40625 C 3.796875 -38.976562 5.226562 -40.265625 8.09375 -40.265625 C 10.957031 -40.265625 12.390625 -38.976562 12.390625 -36.40625 C 12.390625 -35.1875 12.03125 -34.234375 11.3125 -33.546875 C 10.601562 -32.867188 9.53125 -32.53125 8.09375 -32.53125 C 5.226562 -32.53125 3.796875 -33.820312 3.796875 -36.40625 Z M 12.03125 0 L 4.140625 0 L 4.140625 -28.9375 L 12.03125 -28.9375 Z M 12.03125 0 "/></g></g></g><g fill="#327325" fill-opacity="1"><g transform="translate(240.869648, 207.749986)"><g><path d="M 16.328125 -5.765625 C 17.710938 -5.765625 19.367188 -6.066406 21.296875 -6.671875 L 21.296875 -0.796875 C 19.328125 0.078125 16.910156 0.515625 14.046875 0.515625 C 10.890625 0.515625 8.59375 -0.28125 7.15625 -1.875 C 5.71875 -3.46875 5 -5.863281 5 -9.0625 L 5 -23 L 1.21875 -23 L 1.21875 -26.34375 L 5.5625 -28.984375 L 7.84375 -35.09375 L 12.890625 -35.09375 L 12.890625 -28.9375 L 20.984375 -28.9375 L 20.984375 -23 L 12.890625 -23 L 12.890625 -9.0625 C 12.890625 -7.9375 13.203125 -7.101562 13.828125 -6.5625 C 14.460938 -6.03125 15.296875 -5.765625 16.328125 -5.765625 Z M 16.328125 -5.765625 "/></g></g></g><g fill="#000000" fill-opacity="1"><g transform="translate(265.389041, 207.749986)"><g><path d="M 4.765625 -37.828125 L 16.53125 -37.828125 C 21.894531 -37.828125 25.789062 -37.0625 28.21875 -35.53125 C 30.644531 -34.007812 31.859375 -31.585938 31.859375 -28.265625 C 31.859375 -26.003906 31.328125 -24.144531 30.265625 -22.6875 C 29.203125 -21.238281 27.789062 -20.367188 26.03125 -20.078125 L 26.03125 -19.828125 C 28.425781 -19.285156 30.15625 -18.28125 31.21875 -16.8125 C 32.28125 -15.351562 32.8125 -13.40625 32.8125 -10.96875 C 32.8125 -7.519531 31.5625 -4.828125 29.0625 -2.890625 C 26.570312 -0.960938 23.191406 0 18.921875 0 L 4.765625 0 Z M 12.78125 -22.84375 L 17.4375 -22.84375 C 19.613281 -22.84375 21.1875 -23.179688 22.15625 -23.859375 C 23.132812 -24.535156 23.625 -25.648438 23.625 -27.203125 C 23.625 -28.648438 23.09375 -29.6875 22.03125 -30.3125 C 20.96875 -30.945312 19.289062 -31.265625 17 -31.265625 L 12.78125 -31.265625 Z M 12.78125 -16.484375 L 12.78125 -6.625 L 18.015625 -6.625 C 20.222656 -6.625 21.851562 -7.046875 22.90625 -7.890625 C 23.957031 -8.734375 24.484375 -10.03125 24.484375 -11.78125 C 24.484375 -14.914062 22.238281 -16.484375 17.75 -16.484375 Z M 12.78125 -16.484375 "/></g></g></g><g fill="#000000" fill-opacity="1"><g transform="translate(300.993164, 207.749986)"><g><path d="M 10.421875 -14.515625 C 10.421875 -11.648438 10.890625 -9.484375 11.828125 -8.015625 C 12.773438 -6.554688 14.3125 -5.828125 16.4375 -5.828125 C 18.539062 -5.828125 20.050781 -6.554688 20.96875 -8.015625 C 21.894531 -9.472656 22.359375 -11.640625 22.359375 -14.515625 C 22.359375 -17.378906 21.890625 -19.523438 20.953125 -20.953125 C 20.023438 -22.390625 18.5 -23.109375 16.375 -23.109375 C 14.269531 -23.109375 12.75 -22.394531 11.8125 -20.96875 C 10.882812 -19.550781 10.421875 -17.398438 10.421875 -14.515625 Z M 30.4375 -14.515625 C 30.4375 -9.804688 29.191406 -6.125 26.703125 -3.46875 C 24.222656 -0.8125 20.765625 0.515625 16.328125 0.515625 C 13.546875 0.515625 11.09375 -0.0859375 8.96875 -1.296875 C 6.851562 -2.515625 5.222656 -4.265625 4.078125 -6.546875 C 2.941406 -8.828125 2.375 -11.484375 2.375 -14.515625 C 2.375 -19.242188 3.609375 -22.914062 6.078125 -25.53125 C 8.546875 -28.15625 12.015625 -29.46875 16.484375 -29.46875 C 19.265625 -29.46875 21.710938 -28.863281 23.828125 -27.65625 C 25.953125 -26.457031 27.582031 -24.726562 28.71875 -22.46875 C 29.863281 -20.207031 30.4375 -17.554688 30.4375 -14.515625 Z M 30.4375 -14.515625 "/></g></g></g><g fill="#000000" fill-opacity="1"><g transform="translate(333.802779, 207.749986)"><g><path d="M 12.03125 0 L 4.140625 0 L 4.140625 -40.265625 L 12.03125 -40.265625 Z M 12.03125 0 "/></g></g></g><g fill="#000000" fill-opacity="1"><g transform="translate(349.974709, 207.749986)"><g><path d="M 16.328125 -5.765625 C 17.710938 -5.765625 19.367188 -6.066406 21.296875 -6.671875 L 21.296875 -0.796875 C 19.328125 0.078125 16.910156 0.515625 14.046875 0.515625 C 10.890625 0.515625 8.59375 -0.28125 7.15625 -1.875 C 5.71875 -3.46875 5 -5.863281 5 -9.0625 L 5 -23 L 1.21875 -23 L 1.21875 -26.34375 L 5.5625 -28.984375 L 7.84375 -35.09375 L 12.890625 -35.09375 L 12.890625 -28.9375 L 20.984375 -28.9375 L 20.984375 -23 L 12.890625 -23 L 12.890625 -9.0625 C 12.890625 -7.9375 13.203125 -7.101562 13.828125 -6.5625 C 14.460938 -6.03125 15.296875 -5.765625 16.328125 -5.765625 Z M 16.328125 -5.765625 "/></g></g></g></svg>