<svg xmlns="http://www.w3.org/2000/svg" xmlns:xlink="http://www.w3.org/1999/xlink" width="500" zoomAndPan="magnify" viewBox="0 0 375 374.999991" height="500" preserveAspectRatio="xMidYMid meet" version="1.0"><defs><g/></defs><rect x="-37.5" width="450" fill="#ffffff" y="-37.499999" height="449.999989" fill-opacity="1"/><rect x="-37.5" width="450" fill="#ffffff" y="-37.499999" height="449.999989" fill-opacity="1"/><g fill="#000000" fill-opacity="1"><g transform="translate(14.540819, 314.21601)"><g><path d="M 172.265625 -250.265625 C 181.347656 -250.265625 188.890625 -249.609375 194.890625 -248.296875 L 189.84375 -185.453125 C 184.425781 -186.910156 177.832031 -187.640625 170.0625 -187.640625 C 148.675781 -187.640625 132.015625 -182.144531 120.078125 -171.15625 C 108.140625 -160.175781 102.171875 -144.800781 102.171875 -125.03125 L 102.171875 0 L 35.15625 0 L 35.15625 -245.65625 L 85.90625 -245.65625 L 95.796875 -204.34375 L 99.09375 -204.34375 C 106.707031 -218.113281 117 -229.207031 129.96875 -237.625 C 142.9375 -246.050781 157.035156 -250.265625 172.265625 -250.265625 Z M 172.265625 -250.265625 "/></g></g></g><g fill="#000000" fill-opacity="1"><g transform="translate(162.583441, 361.499976)"><g><path d="M 183.6875 -321.234375 L 63.9375 0 L 3.078125 0 L 122.828125 -321.234375 Z M 183.6875 -321.234375 "/></g></g></g></svg>